<svg width="512" height="512" viewBox="0 0 512 512" fill="none" xmlns="http://www.w3.org/2000/svg">
  <defs>
    <linearGradient id="geminiGradient" x1="0%" y1="0%" x2="100%" y2="100%">
      <stop offset="0%" style="stop-color:#1c7eff;stop-opacity:1" /> <stop offset="100%" style="stop-color:#00f0ff;stop-opacity:1" /> </linearGradient>
    <filter id="glow" x="-20%" y="-20%" width="140%" height="140%">
      <feGaussianBlur stdDeviation="15" result="blur" />
      <feComposite in="SourceGraphic" in2="blur" operator="over" />
    </filter>
  </defs>

  <g filter="url(#glow)">
    <path d="M256 96C180 96 110 145 96 220C88 260 100 300 120 330C110 350 90 370 70 380C110 390 150 380 170 360C195 385 225 400 256 400C344.365 400 416 331.98 416 248C416 164.02 344.365 96 256 96Z" 
          fill="url(#geminiGradient)" />
    
    <path d="M160 180C160 180 200 140 280 150" stroke="white" stroke-width="20" stroke-linecap="round" stroke-opacity="0.3" />
  </g>
</svg>